<svg xmlns="http://www.w3.org/2000/svg" viewBox="0 0 58.988 62"><defs><style>.a{fill:none;stroke:#2c3a55;stroke-miterlimit:10;stroke-width:2px}.b{fill:#2c3a55}</style></defs><title>Asset 1601</title><path class="a" d="M46.3 25.67V14.66L32.64 1H1v60h45.3V48.89"/><path class="a" d="M32.643 1.002v13.657H46.3M7.027 23.836h32.444M35.485 33.01H7.905M35.045 42.19H7.03M7.027 51.364h32.444"/><path class="b" d="M52.218 49.21a14.089 14.089 0 0 1-6.885 1.547c-6.344 0-11.72-4.641-11.72-12.068 0-7.969 5.531-14.853 14.119-14.853 6.73 0 11.256 4.718 11.256 11.178 0 5.8-3.249 9.206-6.886 9.206-1.547 0-2.978-1.044-2.863-3.4h-.154a6.077 6.077 0 0 1-5.454 3.4c-2.243 0-4.178-1.818-4.178-4.874a9.135 9.135 0 0 1 9.168-9.167 10.2 10.2 0 0 1 4.139.812l-1.315 7c-.581 2.939-.117 4.293 1.16 4.332 1.972.038 4.177-2.592 4.177-7.079 0-5.609-3.365-9.631-9.36-9.631-6.306 0-11.6 4.99-11.6 12.842 0 6.46 4.215 10.443 9.941 10.443a12.065 12.065 0 0 0 5.837-1.351zM50.091 32.5a6.693 6.693 0 0 0-1.935-.271c-3.4 0-6.15 3.211-6.15 6.962 0 1.7.852 2.94 2.554 2.94 2.243 0 4.293-2.862 4.719-5.26z"/></svg>