<svg xmlns="http://www.w3.org/2000/svg" viewBox="0 0 59.582 61.001"><defs><style>.a{fill:none;stroke:#2c3a55;stroke-miterlimit:10;stroke-width:2px}.b{fill:#2c3a55}</style></defs><title>Asset 1621</title><circle class="a" cx="13.283" cy="22.048" r="12.283"/><path class="a" d="M13.283 22.048l4.672-2.955M13.283 22.048v-8.68"/><circle class="b" cx="13.283" cy="22.048" r="2.177"/><path class="a" d="M13.282 34.331v25.67h45.3V3.283h-45.3v6.478M23.392 32.011h-2.93M18.487 41.186h4.902M18.487 50.362h4.902M28.483 22.834h4.902M28.483 32.01h4.902M28.483 41.186h4.902M28.483 50.362h4.902M48.475 22.834h4.902M48.475 32.01h4.902M48.475 41.186h4.902M38.479 32.01h4.902M38.479 41.186h4.902M38.479 50.362h4.902"/><path class="a" d="M38.479 21.692l2.451 3.244 7.545-7.945M20.896 0v6.566M28.609 0v6.566M51.748 0v6.566M36.322 0v6.566M44.035 0v6.566"/></svg>