<svg xmlns="http://www.w3.org/2000/svg" viewBox="0 0 47.298 61.349"><defs><style>.a,.b{fill:none;stroke:#2c3a55;stroke-width:2px}.a{stroke-linejoin:bevel}.b{stroke-miterlimit:10}</style></defs><title>Asset 1591</title><path class="a" d="M0 52.907h10.401l2.64-3.749 2.714 7.921 2.548-5.657 2.433 1.696 2.366-6.81L26.713 61l3.984-10.708 2.241 4.045 1.642-2.177h12.718"/><path class="b" d="M15.19 40.499h16.607M15.417 5.397h16.086M40.189 45.166V33.258a8.543 8.543 0 0 0-8.518-8.518H15.756a8.543 8.543 0 0 0-8.518 8.518l-.129 11.908M15.19 45.02V34.576M31.797 44.808V34.576"/><circle class="b" cx="23.46" cy="10.568" r="9.568"/><path class="b" d="M7.109 36.411h8.081"/></svg>