<svg xmlns="http://www.w3.org/2000/svg" viewBox="0 0 82 82"><defs><style>.a{fill:none;stroke:#d32812;stroke-miterlimit:10;stroke-width:2px}.b{fill:#d32812}.c{fill:#fff}</style></defs><title>info_red_11</title><circle class="a" cx="41" cy="41" r="40"/><circle class="b" cx="41" cy="41" r="25.513"/><path class="c" d="M43.747 48.582h-5.886q-.023-1.269-.023-1.546a10.3 10.3 0 0 1 .946-4.709 14.36 14.36 0 0 1 3.786-4.154 28.3 28.3 0 0 0 3.393-3.024 4.044 4.044 0 0 0 .853-2.493 4.205 4.205 0 0 0-1.511-3.243 5.892 5.892 0 0 0-4.074-1.35 6.169 6.169 0 0 0-4.131 1.408 7.5 7.5 0 0 0-2.286 4.293l-5.955-.738a9.882 9.882 0 0 1 3.521-7.017 12.474 12.474 0 0 1 8.574-2.885q5.586 0 8.887 2.92a8.839 8.839 0 0 1 3.3 6.8A7.479 7.479 0 0 1 51.93 36.9a26.633 26.633 0 0 1-5.183 5.216 9.907 9.907 0 0 0-2.55 2.747 9.205 9.205 0 0 0-.45 3.719zm-5.886 8.725v-6.486h6.486v6.486z"/></svg>