<svg xmlns="http://www.w3.org/2000/svg" viewBox="0 0 91.024 43.411"><defs><style>.a{fill:#9caac7}.b{fill:#abb5d1}</style></defs><title>logo_triumf_lh1</title><path class="a" d="M55.252 26.358a3.846 3.846 0 0 0 1.533 2.085 3.819 3.819 0 0 0 1.73.626h27.908A3.836 3.836 0 0 0 89.7 26.39a.372.372 0 0 1 .063-.25v-1.7a.475.475 0 0 0-.083-.323 3.838 3.838 0 0 0-.47-1.042L75.8 1.933A3.816 3.816 0 0 0 72.61.077h-.21a3.814 3.814 0 0 0-3.2 1.845L55.742 23.075a3.844 3.844 0 0 0-.49.98 1.849 1.849 0 0 1-.083.323v1.583l.083.178zM.177 26.358a3.842 3.842 0 0 0 1.533 2.085 3.819 3.819 0 0 0 1.73.626h27.877a3.838 3.838 0 0 0 3.273-2.679.372.372 0 0 1 .063-.25v-1.7a.471.471 0 0 0-.084-.323 3.805 3.805 0 0 0-.469-1.042L20.7 1.933A3.817 3.817 0 0 0 17.5.077h-.2a3.814 3.814 0 0 0-3.2 1.845L.646 23.075a3.866 3.866 0 0 0-.469 1.042 1.826 1.826 0 0 1-.083.323v.824H0v.761l.1.115c.025 0 .046.135.077.218z"/><path class="b" d="M89.175 23.012L75.622 1.755a2.782 2.782 0 0 0-.208-.291V1.4l-.219-.24A3.736 3.736 0 0 0 72.161.014h-.187a3.831 3.831 0 0 0-1.7.616A3.83 3.83 0 0 0 69.1 1.881L55.669 23.012a3.86 3.86 0 0 0 6.4 4.316l1.438-2.179h8.955a3.868 3.868 0 1 0 0-7.735h-4.075l4.035-6.339 10.321 16.211a3.867 3.867 0 1 0 6.61-4.016 3.772 3.772 0 0 0-.178-.268z"/><path class="a" d="M62.175 2.8A3.85 3.85 0 0 0 60.642.713 3.827 3.827 0 0 0 58.9.077H31.035a3.838 3.838 0 0 0-3.3 2.7.377.377 0 0 1-.062.25v1.738a.478.478 0 0 0 .083.324 3.866 3.866 0 0 0 .469 1.042L41.7 27.182a3.815 3.815 0 0 0 3.127 1.9h.209a3.815 3.815 0 0 0 3.211-1.9l13.458-21.1a3.844 3.844 0 0 0 .47-1.043 1.826 1.826 0 0 1 .083-.323V3.048c-.031-.083-.052-.167-.083-.248z"/><path class="b" d="M58.484.077h-27.1a3.868 3.868 0 1 0 0 7.735h9.664v17.4a3.868 3.868 0 0 0 7.735 0v-17.4h9.706a3.868 3.868 0 1 0 0-7.735z"/><path class="a" d="M5.186 31.966H1.024v3.122h4.162v8.323h3.121v-8.323h4.162v-3.122H5.186zM21.833 31.966H15.59v11.445h3.122V40.29h3.121A4.174 4.174 0 0 0 26 36.128a4.174 4.174 0 0 0-4.167-4.162zm0 5.434h-3.121v-2.544h3.121a1.272 1.272 0 1 1 0 2.544zM86.342 33.007H85.3v-1.041h-3.12v1.041h-1.041a4.7 4.7 0 0 0-4.682 4.682 4.7 4.7 0 0 0 4.682 4.682h1.041v1.04h3.12v-1.04h1.041a4.7 4.7 0 0 0 4.682-4.682 4.7 4.7 0 0 0-4.681-4.682zm-5.2 6.474a1.792 1.792 0 0 1 0-3.584h1.038v3.584zm5.2 0H85.3V35.9h1.041a1.792 1.792 0 0 1 0 3.584zM32.238 38.694v-6.728h-3.122v11.445h3.122l5.202-6.742v6.742h3.121V31.966H37.44l-5.202 6.728zM50.966 36.259l-3.121-4.293h-4.162l5.202 7.154-3.121 4.291h4.161l1.041-1.43 2.081-2.861 5.202-7.154h-4.162l-3.121 4.293zM69.694 31.966l-2.601 5.723-2.601-5.723H60.33v11.445h3.121v-6.728l3.122 6.728h1.04l3.122-6.728v6.728h3.121V31.966h-4.162z"/></svg>