<svg xmlns="http://www.w3.org/2000/svg" viewBox="0 0 91 43.4"><style>.st0{fill:#45567b}.st1{fill:#3668bf}.st2{fill:#4f84ef}</style><g id="Слой_3"><path class="st0" d="M5.2 32H1v3.1h4.2v8.3h3.1v-8.3h4.2V32H8.3zM21.8 32h-6.2v11.4h3.1v-3.1h3.1c2.3 0 4.2-1.9 4.2-4.2 0-2.3-1.9-4.1-4.2-4.1zm0 5.4h-3.1v-2.5h3.1c.7 0 1.3.6 1.3 1.3 0 .6-.6 1.2-1.3 1.2zM86.3 33h-1v-1h-3.1v1h-1c-2.6 0-4.7 2.1-4.7 4.7s2.1 4.7 4.7 4.7h1v1h3.1v-1h1c2.6 0 4.7-2.1 4.7-4.7S88.9 33 86.3 33zm-5.2 6.5c-1 0-1.8-.8-1.8-1.8s.8-1.8 1.8-1.8h1v3.6h-1zm5.2 0h-1v-3.6h1c1 0 1.8.8 1.8 1.8s-.8 1.8-1.8 1.8zM32.2 38.7V32h-3.1v11.4h3.1l5.2-6.7v6.7h3.2V32h-3.2zM51 36.3L47.8 32h-4.1l5.2 7.1-3.1 4.3h4.1L51 42l2-2.9 5.2-7.1h-4.1zM69.7 32l-2.6 5.7-2.6-5.7h-4.2v11.4h3.2v-6.7l3.1 6.7h1l3.1-6.7v6.7h3.2V32h-3.2z"/></g><g id="Слой_2"><path class="st1" d="M55.3 26.4c.3.9.8 1.6 1.5 2.1.5.3 1.1.6 1.7.6h27.9c1.5-.2 2.8-1.2 3.3-2.7 0-.1 0-.2.1-.3V24.4c0-.1 0-.2-.1-.3-.1-.4-.3-.7-.5-1L75.8 1.9C75.1.8 73.9.1 72.6 0h-.2c-1.3 0-2.5.7-3.2 1.8L55.7 23.1c-.2.3-.4.6-.5 1 0 .1 0 .2-.1.3V26l.1.2v.2zM.2 26.4c.3.9.8 1.6 1.5 2.1.5.3 1.1.6 1.7.6h27.9c1.5-.2 2.8-1.2 3.3-2.7 0-.1 0-.2.1-.3V24.4c0-.1 0-.2-.1-.3-.1-.4-.3-.7-.5-1L20.7 1.9C20 .8 18.8.1 17.5 0h-.2c-1.3 0-2.5.7-3.2 1.8L.6 23.1c-.2.3-.4.7-.5 1 0 .1 0 .2-.1.3V26l.1.1s0 .2.1.3z"/><path class="st2" d="M89.2 23L75.6 1.8c-.1-.1-.1-.2-.2-.3v-.1l-.2-.2c-.8-.8-1.9-1.2-3-1.1H72c-.6.1-1.2.3-1.7.6s-.9.8-1.2 1.3L55.7 23c-1.2 1.8-.7 4.2 1.1 5.3 1.7 1.1 4.1.7 5.3-1l1.4-2.2h9c2.1 0 3.9-1.7 3.9-3.8 0-2.1-1.7-3.9-3.8-3.9H68.4l4-6.3 10.3 16.2c1.1 1.8 3.5 2.4 5.3 1.3 1.8-1.1 2.4-3.5 1.3-5.3 0-.1-.1-.2-.1-.3z"/><path class="st1" d="M62.2 2.8c-.3-.9-.8-1.6-1.5-2.1-.5-.4-1.1-.6-1.7-.6H31c-1.5.1-2.8 1.2-3.3 2.7 0 .1 0 .2-.1.3v1.8c0 .1 0 .2.1.3.1.4.3.7.5 1l13.5 21.1c.7 1.1 1.8 1.8 3.1 1.9h.2c1.3 0 2.5-.8 3.2-1.9L61.7 6.1c.2-.3.4-.7.5-1 0-.1 0-.2.1-.3V3c-.1 0-.1-.1-.1-.2z"/><path class="st2" d="M58.5.1H31.4c-2.1 0-3.9 1.7-3.9 3.8s1.7 3.9 3.8 3.9H41v17.4c0 2.1 1.8 3.8 3.9 3.8 2.1 0 3.8-1.7 3.8-3.8V7.8h9.7c2.1 0 3.9-1.7 3.9-3.8 0-2.1-1.7-3.9-3.8-3.9.1 0 0 0 0 0z"/></g></svg>