<svg xmlns="http://www.w3.org/2000/svg" viewBox="0 0 80 80.021"><defs><style>.a,.b{fill:#9caac7}.b{fill-rule:evenodd}</style></defs><title>Asset 761</title><path class="a" d="M40 0a40 40 0 1 1-28.282 11.716A39.949 39.949 0 0 1 40 0zm26.069 13.931a36.87 36.87 0 1 0 10.808 26.091 36.739 36.739 0 0 0-10.808-26.091z"/><path class="b" d="M60.421 27.552a17.867 17.867 0 0 1-4.806 1.307 8.265 8.265 0 0 0 3.7-4.585 17.059 17.059 0 0 1-5.338 2.015 8.415 8.415 0 0 0-14.508 5.626 8.637 8.637 0 0 0 .244 1.883 23.781 23.781 0 0 1-17.276-8.616 8.139 8.139 0 0 0 2.568 11.008 8.114 8.114 0 0 1-3.786-1.019v.111a7.8 7.8 0 0 0 .575 2.968 8.355 8.355 0 0 0 6.158 5.094 8.211 8.211 0 0 1-2.215.31 7.51 7.51 0 0 1-1.574-.177 8.451 8.451 0 0 0 7.82 5.758A16.943 16.943 0 0 1 21.6 52.757c-.687 0-1.329-.045-2.015-.111a24.183 24.183 0 0 0 12.846 3.7A23.311 23.311 0 0 0 55.7 37.873a22.72 22.72 0 0 0 .553-4.983v-1.063a17.344 17.344 0 0 0 4.165-4.275z"/></svg>