<svg xmlns="http://www.w3.org/2000/svg" viewBox="0 0 80 80"><defs><style>.a,.b{fill:#9caac7}.b{fill-rule:evenodd}</style></defs><title>Asset 771</title><path class="a" d="M40 0a40 40 0 1 1-28.284 11.716A39.857 39.857 0 0 1 40 0zm26.069 13.932A36.872 36.872 0 1 0 76.875 40a36.761 36.761 0 0 0-10.806-26.068z"/><path class="b" d="M62.125 28.859c-.6-.442-2.746-.442-4.872-.442a30.794 30.794 0 0 0-4.851.244c-.464.176-1.505 2.7-2.856 5.292-1.551 2.925-3.433 5.759-4.629 5.714-1.573 0-1.2-4.806-1.085-8.371.021-2.326-.355-3.079-.687-3.277a13.191 13.191 0 0 0-3.078-1.129s-6.779-.511-7.73 2.413c1.306.177 3.521-.223 2.657 8.836-.066.444-1.041 4.164-4.186-.864-.8-1.261-3.809-8.814-4.872-8.858-3.479-.067-6.933-.222-8.128.442-1.13.665 1.506 5.847 5.958 12.8 3.609 5.713 7.441 10.144 14.086 11.25 1.262.135 4.5.265 5.537-.221.686-.332-.178-5.249 2.193-5.737 1.041-.2 5.092 5.14 6.62 5.737a14.893 14.893 0 0 0 5.051.442c2.26-.065 4.827.223 5.071-1.327.555-3.389-6.842-7.82-7.042-9.9-.177-1.506 2.7-4.274 4.164-6.4 1.815-2.569 3.81-5.67 2.679-6.645z"/></svg>