<svg xmlns="http://www.w3.org/2000/svg" viewBox="0 0 80 80"><defs><style>.a,.b{fill:#9caac7}.b{fill-rule:evenodd}</style></defs><title>Asset 801</title><path class="a" d="M40 0a40 40 0 1 1-28.283 11.717A39.849 39.849 0 0 1 40 0zm26.091 13.931A36.922 36.922 0 1 0 76.877 40a36.854 36.854 0 0 0-10.786-26.069z"/><path class="b" d="M43.056 31.827v-3.278a1.718 1.718 0 0 1 1.8-1.949h4.584v-7h-6.317c-7.021 0-8.594 5.182-8.594 8.549v3.677h-4.075V40h4.119v20.421h8.174V40h6.046l.266-3.212.487-4.961z"/></svg>