<?xml version="1.0" encoding="utf-8"?>
<!-- Generator: Adobe Illustrator 21.0.0, SVG Export Plug-In . SVG Version: 6.00 Build 0)  -->
<svg version="1.1" id="Слой_1" xmlns="http://www.w3.org/2000/svg" xmlns:xlink="http://www.w3.org/1999/xlink" x="0px" y="0px"
	 viewBox="0 0 93 93.3" style="enable-background:new 0 0 93 93.3;" xml:space="preserve">
<style type="text/css">
	.st0{fill:#FFFFFF;}
	.st1{fill:none;}
	.st2{fill:#3668BF;}
	.st3{fill:#4F84EF;}
	.st4{fill:#45567B;}
</style>
<g id="Слой_3">
	<circle class="st0" cx="46.6" cy="46.6" r="46.6"/>
	<g>
		<path class="st1" d="M76.2,63.4c0,0.9,0.7,1.6,1.6,1.6h0.9v-3.1h-0.9C76.9,61.8,76.2,62.5,76.2,63.4z"/>
		<path class="st1" d="M25.7,60.9h-2.7v2.2h2.7c0,0,0,0,0,0c0.6,0,1.1-0.5,1.1-1.1C26.8,61.4,26.3,60.9,25.7,60.9z"/>
		<path class="st1" d="M82.4,61.8h-0.9V65h0.9l0,0c0.9,0,1.6-0.7,1.6-1.6C84,62.5,83.3,61.8,82.4,61.8z"/>
		<path class="st2" d="M73,31.8L84,49.2L73.1,32c-0.1-0.2-0.2-0.3-0.3-0.5v0C72.8,31.6,72.9,31.7,73,31.8z"/>
		<path class="st2" d="M79.2,54.3L70.2,40l-3.5,5.6h3.6c0,0,0.1,0,0.1,0c1.9,0,3.4,1.6,3.3,3.5c0,1.9-1.6,3.4-3.5,3.3h-7.9l-1.3,1.9
			c-1,1.5-3.1,1.9-4.6,0.9c-0.5-0.4-1-0.9-1.2-1.4c0.3,0.6,0.7,1.1,1.2,1.5c0.5,0.3,1,0.5,1.5,0.6h23.6
			C80.6,55.7,79.7,55.1,79.2,54.3z"/>
		<path class="st2" d="M55.1,53.4C55.1,53.5,55.1,53.5,55.1,53.4C55.1,53.5,55.1,53.5,55.1,53.4L55.1,53.4z"/>
		<path class="st2" d="M72.3,31c0.1,0,0.1,0.1,0.2,0.1C72.4,31.1,72.3,31.1,72.3,31z"/>
		<path class="st2" d="M8,55.3c0.5,0.3,1,0.5,1.5,0.6H34c1.3-0.1,2.5-1.1,2.9-2.4c0-0.1,0-0.2,0.1-0.2v-0.8v-0.7
			c0-0.1,0-0.2-0.1-0.3c-0.1-0.3-0.2-0.6-0.4-0.9L24.7,32c-0.6-1-1.7-1.6-2.8-1.6h-0.2c-1.2,0-2.2,0.6-2.8,1.6L7.1,50.6
			c-0.2,0.3-0.3,0.6-0.4,0.9c0,0.1,0,0.2-0.1,0.3v0.7H6.5v0.7l0.1,0.1c0,0,0,0.1,0.1,0.2C6.9,54.2,7.4,54.8,8,55.3z"/>
		<path class="st3" d="M56.4,55.2c1.5,1,3.6,0.6,4.6-0.9l1.3-1.9h7.9c1.9,0,3.4-1.5,3.5-3.3c0-1.9-1.5-3.4-3.3-3.5c0,0-0.1,0-0.1,0
			h-3.6l3.5-5.6l9.1,14.2c0.5,0.9,1.4,1.4,2.3,1.6c0.8,0.1,1.6,0,2.4-0.4c1.6-1,2.1-3.1,1.1-4.7c0-0.1-0.1-0.2-0.2-0.2v0L84,49.2
			L73,31.8c-0.1-0.1-0.1-0.2-0.2-0.3v0v0l-0.2-0.2c-0.1-0.1-0.1-0.1-0.2-0.2c0,0-0.1-0.1-0.2-0.1c-0.7-0.5-1.5-0.8-2.3-0.7h-0.2
			c-0.5,0.1-1,0.2-1.5,0.5c-0.4,0.3-0.8,0.7-1,1.1L55.4,50.5c-0.6,0.9-0.7,2-0.4,2.9c0,0,0,0,0,0.1c0,0.1,0.1,0.2,0.1,0.3
			C55.5,54.3,55.9,54.8,56.4,55.2z"/>
		<path class="st2" d="M59.4,30.7C59.4,30.7,59.5,30.7,59.4,30.7C59.5,30.7,59.4,30.7,59.4,30.7z"/>
		<path class="st2" d="M57.9,37.1h-8.5v15.3c0,1.8-1.5,3.3-3.3,3.3c-0.7,0-1.3-0.2-1.9-0.5c0.5,0.3,1.1,0.5,1.7,0.6h0.2
			c1.2,0,2.2-0.7,2.8-1.7L60.5,36C59.9,36.7,58.9,37.2,57.9,37.1z"/>
		<path class="st2" d="M44,55.2c0,0-0.1-0.1-0.1-0.1C43.9,55.1,44,55.1,44,55.2z"/>
		<path class="st2" d="M58.3,30.3H58c0.4,0,0.8,0.1,1.2,0.2C58.9,30.5,58.6,30.4,58.3,30.3z"/>
		<path class="st2" d="M33.1,30.5c0.1,0,0.1,0,0.2-0.1C33.3,30.4,33.2,30.5,33.1,30.5z"/>
		<path class="st2" d="M42.6,37.1h-8.5c0,0-0.1,0-0.1,0c-0.9,0-1.8-0.4-2.4-1l11.2,17.6c-0.2-0.4-0.3-0.8-0.3-1.3V37.1z"/>
		<path class="st2" d="M33.8,30.3c-0.1,0-0.2,0-0.3,0.1c0.2,0,0.4-0.1,0.6-0.1H33.8z"/>
		<path class="st3" d="M43.9,55.1c0,0,0.1,0.1,0.1,0.1c0,0,0.1,0.1,0.1,0.1c0.5,0.3,1.2,0.5,1.9,0.5c1.8,0,3.3-1.5,3.3-3.3V37.1h8.5
			c1,0,2-0.4,2.6-1.2c0.5-0.6,0.8-1.3,0.8-2.2c0-1.4-0.8-2.5-1.9-3.1c0,0,0,0,0,0c-0.1,0-0.2-0.1-0.2-0.1c-0.4-0.1-0.8-0.2-1.2-0.2
			h-0.1h0H34.1c-0.2,0-0.4,0-0.6,0.1c-0.1,0-0.1,0-0.2,0c-0.1,0-0.1,0-0.2,0.1c-1.4,0.4-2.5,1.7-2.5,3.2c0,0.9,0.4,1.8,1,2.4
			c0.6,0.6,1.4,1,2.4,1c0,0,0.1,0,0.1,0h8.5v15.3c0,0.4,0.1,0.9,0.3,1.3C43.1,54.2,43.4,54.7,43.9,55.1z"/>
		<polygon class="st4" points="11.1,58.4 7.4,58.4 7.4,61.1 11.1,61.1 11.1,68.4 13.8,68.4 13.8,61.1 17.5,61.1 17.5,58.4 
			13.8,58.4 		"/>
		<path class="st4" d="M25.7,58.4h-5.5v10.1h2.7v-2.7h2.7c2,0,3.7-1.6,3.7-3.7C29.3,60,27.7,58.4,25.7,58.4z M25.7,63.2
			C25.7,63.2,25.7,63.2,25.7,63.2h-2.7v-2.2h2.7c0.6,0,1.1,0.5,1.1,1.1C26.8,62.7,26.3,63.2,25.7,63.2z"/>
		<path class="st4" d="M82.4,59.3h-0.9v-0.9h-2.7v0.9h-0.9c-2.3,0-4.1,1.8-4.1,4.1c0,2.3,1.8,4.1,4.1,4.1h0.9v0.9h2.7v-0.9h0.9
			c2.3,0,4.1-1.8,4.1-4.1C86.5,61.1,84.7,59.3,82.4,59.3z M78.7,65h-0.9c-0.9,0-1.6-0.7-1.6-1.6c0-0.9,0.7-1.6,1.6-1.6h0.9V65z
			 M82.4,65L82.4,65l-0.9,0v-3.1h0.9c0.9,0,1.6,0.7,1.6,1.6C84,64.3,83.3,65,82.4,65z"/>
		<polygon class="st4" points="34.8,64.3 34.8,58.4 32.1,58.4 32.1,68.4 34.8,68.4 39.4,62.5 39.4,68.4 42.1,68.4 42.1,58.4 
			39.4,58.4 		"/>
		<polygon class="st4" points="51.3,62.1 48.6,58.4 44.9,58.4 49.5,64.7 46.7,68.4 50.4,68.4 51.3,67.2 53.1,64.7 57.7,58.4 
			54,58.4 		"/>
		<polygon class="st4" points="67.8,58.4 65.5,63.4 63.2,58.4 62.3,58.4 59.5,58.4 59.5,68.4 62.3,68.4 62.3,62.5 65,68.4 
			65.9,68.4 68.7,62.5 68.7,68.4 71.4,68.4 71.4,58.4 68.7,58.4 		"/>
	</g>
</g>
</svg>
