<svg xmlns="http://www.w3.org/2000/svg" viewBox="0 0 59.725 62"><defs><style>.a{fill:none;stroke:#2c3a55;stroke-miterlimit:10;stroke-width:2px;}</style></defs><title>Asset 1611</title><line class="a" x1="58.725" y1="27.278" x2="28.781" y2="27.278"/><polyline class="a" points="37.418 42.472 58.725 42.472 58.725 27.278 58.725 19.832 51.941 19.832 20.211 19.832 20.211 23.64"/><line class="a" x1="13.425" y1="8.451" x2="51.942" y2="8.451"/><polyline class="a" points="51.941 19.832 51.941 8.455 51.941 1 13.427 1 13.427 8.455 13.427 23.64 20.211 23.64"/><circle class="a" cx="19.215" cy="42.785" r="18.215"/><path class="a" d="M14.875,33.764H22.2a5.142,5.142,0,0,1,5.126,5.127h0A5.141,5.141,0,0,1,22.2,44.017H11.1"/><line class="a" x1="16.379" y1="37.288" x2="16.379" y2="51.806"/><line class="a" x1="11.1" y1="48.585" x2="24.078" y2="48.585"/></svg>