<svg xmlns="http://www.w3.org/2000/svg" viewBox="0 0 47.825 61.751"><defs><style>.a{fill:none;stroke:#2c3a55;stroke-miterlimit:10;stroke-width:2px;}.b{fill:#223458;}</style></defs><title>Asset 1631</title><line class="a" x1="26.859" y1="4.936" x2="30.635" y2="4.936"/><path class="a" d="M18.376,26.806c-.3.841-.664,1.739-1.075,2.725-.436,1.043-.828,1.992-1.176,2.839"/><path class="a" d="M41.906,25.225,45.251,23.3a3.162,3.162,0,0,0-3.162-5.476l-.721.443"/><path class="a" d="M31.227,49.073a13.534,13.534,0,0,1-7.545,6.982A33.536,33.536,0,0,0,14.942,61"/><rect class="a" x="36.755" y="33.499" width="9.424" height="5.709" rx="2.855" ry="2.855" transform="translate(-13.02 27.848) rotate(-32.368)"/><path class="a" d="M41.369,46.084v1.33a1.3,1.3,0,0,1-1.3,1.29H17.421a1.3,1.3,0,0,1-1.3-1.29V32.37c.348-.847.74-1.8,1.176-2.839.411-.986.772-1.884,1.075-2.725a14.841,14.841,0,0,0,.19-10.617,5.833,5.833,0,0,0-.19-.569,4.144,4.144,0,0,0-2.251-2.713V2.29A1.3,1.3,0,0,1,17.421,1H40.072a1.3,1.3,0,0,1,1.3,1.29V26.176"/><rect class="a" x="37.311" y="26.829" width="8.116" height="5.709" rx="2.855" ry="2.855" transform="translate(-9.464 26.76) rotate(-32.368)"/><rect class="a" x="38.806" y="39.895" width="6.493" height="5.709" rx="2.855" ry="2.855" transform="translate(-16.353 29.156) rotate(-32.368)"/><path class="a" d="M.867,50.809a41.634,41.634,0,0,0,3.99-11.875c1.429-7.411,4.18-8.36,6.462-14.626s1.613-9.125,1.613-10.168c0-.658,1.606-1.827,3.193-1.233"/><path class="a" d="M16.125,32.37c.348-.847.74-1.8,1.176-2.839.411-.986.772-1.884,1.075-2.725a14.841,14.841,0,0,0,.19-10.617,5.833,5.833,0,0,0-.19-.569,4.144,4.144,0,0,0-2.251-2.713"/><circle class="b" cx="28.747" cy="43.407" r="1.888"/></svg>