<svg xmlns="http://www.w3.org/2000/svg" viewBox="0 0 59.582 61.001"><defs><style>.a{fill:none;stroke:#2c3a55;stroke-miterlimit:10;stroke-width:2px;}.b{fill:#2c3a55;}</style></defs><title>Asset 1621</title><circle class="a" cx="13.283" cy="22.048" r="12.283"/><line class="a" x1="13.283" y1="22.048" x2="17.955" y2="19.093"/><line class="a" x1="13.283" y1="22.048" x2="13.283" y2="13.368"/><circle class="b" cx="13.283" cy="22.048" r="2.177"/><polyline class="a" points="13.282 34.331 13.282 60.001 58.582 60.001 58.582 3.283 13.282 3.283 13.282 9.761"/><line class="a" x1="23.392" y1="32.011" x2="20.462" y2="32.011"/><line class="a" x1="18.487" y1="41.186" x2="23.389" y2="41.186"/><line class="a" x1="18.487" y1="50.362" x2="23.389" y2="50.362"/><line class="a" x1="28.483" y1="22.834" x2="33.385" y2="22.834"/><line class="a" x1="28.483" y1="32.01" x2="33.385" y2="32.01"/><line class="a" x1="28.483" y1="41.186" x2="33.385" y2="41.186"/><line class="a" x1="28.483" y1="50.362" x2="33.385" y2="50.362"/><line class="a" x1="48.475" y1="22.834" x2="53.377" y2="22.834"/><line class="a" x1="48.475" y1="32.01" x2="53.377" y2="32.01"/><line class="a" x1="48.475" y1="41.186" x2="53.377" y2="41.186"/><line class="a" x1="38.479" y1="32.01" x2="43.381" y2="32.01"/><line class="a" x1="38.479" y1="41.186" x2="43.381" y2="41.186"/><line class="a" x1="38.479" y1="50.362" x2="43.381" y2="50.362"/><polyline class="a" points="38.479 21.692 40.93 24.936 48.475 16.991"/><line class="a" x1="20.896" x2="20.896" y2="6.566"/><line class="a" x1="28.609" x2="28.609" y2="6.566"/><line class="a" x1="51.748" x2="51.748" y2="6.566"/><line class="a" x1="36.322" x2="36.322" y2="6.566"/><line class="a" x1="44.035" x2="44.035" y2="6.566"/></svg>