<svg xmlns="http://www.w3.org/2000/svg" viewBox="0 0 47.298 61.349"><defs><style>.a,.b{fill:none;stroke:#2c3a55;stroke-width:2px;}.a{stroke-linejoin:bevel;}.b{stroke-miterlimit:10;}</style></defs><title>Asset 1591</title><polyline class="a" points="0 52.907 10.401 52.907 13.041 49.158 15.755 57.079 18.303 51.422 20.736 53.118 23.102 46.308 26.713 61 30.697 50.292 32.938 54.337 34.58 52.16 47.298 52.16"/><line class="b" x1="15.19" y1="40.499" x2="31.797" y2="40.499"/><line class="b" x1="15.417" y1="5.397" x2="31.503" y2="5.397"/><path class="b" d="M40.189,45.166V33.258a8.543,8.543,0,0,0-8.518-8.518H15.756a8.543,8.543,0,0,0-8.518,8.518L7.109,45.166"/><line class="b" x1="15.19" y1="45.02" x2="15.19" y2="34.576"/><line class="b" x1="31.797" y1="44.808" x2="31.797" y2="34.576"/><circle class="b" cx="23.46" cy="10.568" r="9.568"/><line class="b" x1="7.109" y1="36.411" x2="15.19" y2="36.411"/></svg>