<svg xmlns="http://www.w3.org/2000/svg" viewBox="0 0 50.934 61.999"><defs><style>.a{fill:none;stroke:#2c3a55;stroke-miterlimit:10;stroke-width:2px;}</style></defs><title>Asset 1581</title><path class="a" d="M20.95,38.84H1V1H20.95l8.61,8.61V23.16"/><polyline class="a" points="20.951 0.999 20.951 9.612 29.564 9.612"/><line class="a" x1="4.795" y1="15.399" x2="25.258" y2="15.399"/><line class="a" x1="4.795" y1="21.187" x2="25.258" y2="21.187"/><line class="a" x1="20.95" y1="26.97" x2="4.8" y2="26.97"/><line class="a" x1="20.95" y1="32.76" x2="4.8" y2="32.76"/><path class="a" d="M49.52,61H20.951V23.158H40.906l8.614,8.613Z"/><polyline class="a" points="40.906 23.158 40.906 31.771 49.52 31.771"/><line class="a" x1="24.751" y1="37.558" x2="45.213" y2="37.558"/><line class="a" x1="24.751" y1="43.346" x2="45.213" y2="43.346"/><line class="a" x1="24.751" y1="49.133" x2="45.213" y2="49.133"/><line class="a" x1="24.751" y1="54.92" x2="45.213" y2="54.92"/><line class="a" x1="35.313" y1="12.646" x2="49.52" y2="12.646"/><polyline class="a" points="45.234 8.36 49.52 12.646 45.234 16.932"/></svg>