<?xml version="1.0" encoding="utf-8"?>
<!-- Generator: Adobe Illustrator 21.0.0, SVG Export Plug-In . SVG Version: 6.00 Build 0)  -->
<svg version="1.1" xmlns="http://www.w3.org/2000/svg" xmlns:xlink="http://www.w3.org/1999/xlink" x="0px" y="0px"
	 viewBox="0 0 91 43.4" style="enable-background:new 0 0 91 43.4;" xml:space="preserve">
<style type="text/css">
	.st0{fill:#45567B;}
	.st1{fill:#3668BF;}
	.st2{fill:#4F84EF;}
</style>
<g id="Слой_3">
	<g>
		<polygon class="st0" points="5.2,32 1,32 1,35.1 5.2,35.1 5.2,43.4 8.3,43.4 8.3,35.1 12.5,35.1 12.5,32 8.3,32 		"/>
		<path class="st0" d="M21.8,32h-6.2v11.4h3.1v-3.1h3.1c2.3,0,4.2-1.9,4.2-4.2l0,0C26,33.8,24.1,32,21.8,32z M21.8,37.4h-3.1v-2.5
			h3.1c0.7,0,1.3,0.6,1.3,1.3C23.1,36.8,22.5,37.4,21.8,37.4C21.8,37.4,21.8,37.4,21.8,37.4z"/>
		<path class="st0" d="M86.3,33h-1v-1h-3.1v1h-1c-2.6,0-4.7,2.1-4.7,4.7l0,0c0,2.6,2.1,4.7,4.7,4.7h1v1h3.1v-1h1
			c2.6,0,4.7-2.1,4.7-4.7l0,0C91,35.1,88.9,33,86.3,33z M81.1,39.5c-1,0-1.8-0.8-1.8-1.8c0-1,0.8-1.8,1.8-1.8h1v3.6H81.1z
			 M86.3,39.5h-1v-3.6h1c1,0,1.8,0.8,1.8,1.8C88.1,38.7,87.3,39.5,86.3,39.5L86.3,39.5z"/>
		<polygon class="st0" points="32.2,38.7 32.2,32 29.1,32 29.1,43.4 32.2,43.4 37.4,36.7 37.4,43.4 40.6,43.4 40.6,32 37.4,32 		"/>
		<polygon class="st0" points="51,36.3 47.8,32 43.7,32 48.9,39.1 45.8,43.4 49.9,43.4 51,42 53,39.1 58.2,32 54.1,32 		"/>
		<polygon class="st0" points="69.7,32 67.1,37.7 64.5,32 63.5,32 60.3,32 60.3,43.4 63.5,43.4 63.5,36.7 66.6,43.4 67.6,43.4 
			70.7,36.7 70.7,43.4 73.9,43.4 73.9,32 70.7,32 		"/>
	</g>
</g>
<g id="Слой_2">
	<g>
		<path class="st1" d="M55.3,26.4L55.3,26.4c0.3,0.9,0.8,1.6,1.5,2.1l0,0c0.5,0.3,1.1,0.6,1.7,0.6h27.9c1.5-0.2,2.8-1.2,3.3-2.7l0,0
			c0-0.1,0-0.2,0.1-0.3v-0.9l0,0v-0.8c0-0.1,0-0.2-0.1-0.3l0,0c-0.1-0.4-0.3-0.7-0.5-1L75.8,1.9c-0.7-1.1-1.9-1.8-3.2-1.9h-0.2
			c-1.3,0-2.5,0.7-3.2,1.8L55.7,23.1c-0.2,0.3-0.4,0.6-0.5,1l0,0c0,0.1,0,0.2-0.1,0.3v0.8l0,0V26l0.1,0.2V26.4z"/>
		<path class="st1" d="M0.2,26.4L0.2,26.4c0.3,0.9,0.8,1.6,1.5,2.1l0,0c0.5,0.3,1.1,0.6,1.7,0.6h27.9c1.5-0.2,2.8-1.2,3.3-2.7l0,0
			c0-0.1,0-0.2,0.1-0.3v-0.9l0,0v-0.8c0-0.1,0-0.2-0.1-0.3l0,0c-0.1-0.4-0.3-0.7-0.5-1L20.7,1.9c-0.7-1.1-1.9-1.8-3.2-1.9h-0.2
			c-1.3,0-2.5,0.7-3.2,1.8L0.6,23.1c-0.2,0.3-0.4,0.7-0.5,1l0,0c0,0.1,0,0.2-0.1,0.3v0.8H0V26l0.1,0.1C0.1,26.1,0.1,26.3,0.2,26.4z"
			/>
		<path class="st2" d="M89.2,23L75.6,1.8c-0.1-0.1-0.1-0.2-0.2-0.3V1.4l-0.2-0.2l0,0c-0.8-0.8-1.9-1.2-3-1.1H72
			c-0.6,0.1-1.2,0.3-1.7,0.6l0,0c-0.5,0.3-0.9,0.8-1.2,1.3L55.7,23c-1.2,1.8-0.7,4.2,1.1,5.3c1.7,1.1,4.1,0.7,5.3-1l1.4-2.2h9
			c2.1,0,3.9-1.7,3.9-3.8c0-2.1-1.7-3.9-3.8-3.9c0,0-0.1,0-0.1,0h-4.1l4-6.3l10.3,16.2c1.1,1.8,3.5,2.4,5.3,1.3
			c1.8-1.1,2.4-3.5,1.3-5.3C89.3,23.2,89.2,23.1,89.2,23L89.2,23z"/>
		<path class="st1" d="M62.2,2.8L62.2,2.8c-0.3-0.9-0.8-1.6-1.5-2.1l0,0c-0.5-0.4-1.1-0.6-1.7-0.6H31c-1.5,0.1-2.8,1.2-3.3,2.7l0,0
			c0,0.1,0,0.2-0.1,0.3v0.9l0,0v0.9c0,0.1,0,0.2,0.1,0.3l0,0c0.1,0.4,0.3,0.7,0.5,1l13.5,21.1c0.7,1.1,1.8,1.8,3.1,1.9H45
			c1.3,0,2.5-0.8,3.2-1.9L61.7,6.1c0.2-0.3,0.4-0.7,0.5-1l0,0c0-0.1,0-0.2,0.1-0.3V3.9l0,0V3C62.2,3,62.2,2.9,62.2,2.8z"/>
		<path class="st2" d="M58.5,0.1H31.4c-2.1,0-3.9,1.7-3.9,3.8s1.7,3.9,3.8,3.9c0,0,0.1,0,0.1,0H41v17.4c0,2.1,1.8,3.8,3.9,3.8
			c2.1,0,3.8-1.7,3.8-3.8V7.8h9.7c2.1,0,3.9-1.7,3.9-3.8c0-2.1-1.7-3.9-3.8-3.9C58.6,0.1,58.5,0.1,58.5,0.1L58.5,0.1z"/>
	</g>
</g>
</svg>
