<svg xmlns="http://www.w3.org/2000/svg" viewBox="0 0 91.024 43.411"><defs><style>.a{fill:#9caac7;}.b{fill:#abb5d1;}</style></defs><title>logo_triumf_lh1</title><path class="a" d="M55.252,26.358h0a3.846,3.846,0,0,0,1.533,2.085h0a3.819,3.819,0,0,0,1.73.626H86.423A3.836,3.836,0,0,0,89.7,26.39h0a.372.372,0,0,1,.063-.25v-.876h0V24.44a.475.475,0,0,0-.083-.323h0a3.838,3.838,0,0,0-.47-1.042L75.8,1.933A3.816,3.816,0,0,0,72.61.077H72.4a3.814,3.814,0,0,0-3.2,1.845L55.742,23.075a3.844,3.844,0,0,0-.49.98h0a1.849,1.849,0,0,1-.083.323V25.2h0v.761l.083.178Z"/><path class="a" d="M.177,26.358h0A3.842,3.842,0,0,0,1.71,28.443h0a3.819,3.819,0,0,0,1.73.626H31.317A3.838,3.838,0,0,0,34.59,26.39h0a.372.372,0,0,1,.063-.25v-.876h0V24.44a.471.471,0,0,0-.084-.323h0a3.805,3.805,0,0,0-.469-1.042L20.7,1.933A3.817,3.817,0,0,0,17.5.077H17.3a3.814,3.814,0,0,0-3.2,1.845L.646,23.075a3.866,3.866,0,0,0-.469,1.042h0a1.826,1.826,0,0,1-.083.323v.824H0v.761l.1.115C.125,26.14.146,26.275.177,26.358Z"/><path class="b" d="M89.175,23.012,75.622,1.755a2.782,2.782,0,0,0-.208-.291V1.4l-.219-.24h0A3.736,3.736,0,0,0,72.161.014h-.187a3.831,3.831,0,0,0-1.7.616h0A3.83,3.83,0,0,0,69.1,1.881L55.669,23.012a3.86,3.86,0,0,0,6.4,4.316l1.438-2.179h8.955a3.868,3.868,0,1,0,0-7.735H68.387l4.035-6.339L82.743,27.286a3.867,3.867,0,1,0,6.61-4.016c-.056-.092-.115-.182-.178-.268Z"/><path class="a" d="M62.175,2.8h0A3.85,3.85,0,0,0,60.642.713h0A3.827,3.827,0,0,0,58.9.077H31.035a3.838,3.838,0,0,0-3.3,2.7h0a.377.377,0,0,1-.062.25V3.9h0v.865a.478.478,0,0,0,.083.324h0a3.866,3.866,0,0,0,.469,1.042L41.7,27.182a3.815,3.815,0,0,0,3.127,1.9h.209a3.815,3.815,0,0,0,3.211-1.9l13.458-21.1a3.844,3.844,0,0,0,.47-1.043h0a1.826,1.826,0,0,1,.083-.323V3.934h0V3.048C62.227,2.965,62.206,2.881,62.175,2.8Z"/><path class="b" d="M58.484.077h-27.1a3.868,3.868,0,1,0,0,7.735h9.664v17.4a3.868,3.868,0,0,0,7.735,0V7.812h9.706a3.868,3.868,0,1,0,0-7.735Z"/><polygon class="a" points="5.186 31.966 1.024 31.966 1.024 35.088 5.186 35.088 5.186 43.411 8.307 43.411 8.307 35.088 12.469 35.088 12.469 31.966 8.307 31.966 5.186 31.966"/><path class="a" d="M21.833,31.966H15.59V43.411h3.122V40.29h3.121A4.174,4.174,0,0,0,26,36.128h0A4.174,4.174,0,0,0,21.833,31.966Zm0,5.434H18.712V34.856h3.121a1.272,1.272,0,1,1,0,2.544Z"/><path class="a" d="M86.342,33.007H85.3V31.966H82.18v1.041H81.139a4.7,4.7,0,0,0-4.682,4.682h0a4.7,4.7,0,0,0,4.682,4.682H82.18v1.04H85.3v-1.04h1.041a4.7,4.7,0,0,0,4.682-4.682h0A4.7,4.7,0,0,0,86.342,33.007Zm-5.2,6.474a1.792,1.792,0,0,1,0-3.584H82.18v3.584Zm5.2,0H85.3V35.9h1.041a1.792,1.792,0,0,1,0,3.584Z"/><polygon class="a" points="32.238 38.694 32.238 31.966 29.116 31.966 29.116 43.411 32.238 43.411 37.44 36.669 37.44 43.411 40.561 43.411 40.561 31.966 37.44 31.966 32.238 38.694"/><polygon class="a" points="50.966 36.259 47.845 31.966 43.683 31.966 48.885 39.12 45.764 43.411 49.925 43.411 50.966 41.981 53.047 39.12 58.249 31.966 54.087 31.966 50.966 36.259"/><polygon class="a" points="69.694 31.966 67.093 37.689 64.492 31.966 63.451 31.966 60.33 31.966 60.33 43.411 63.451 43.411 63.451 36.683 66.573 43.411 67.613 43.411 70.735 36.683 70.735 43.411 73.856 43.411 73.856 31.966 70.735 31.966 69.694 31.966"/></svg>