<svg xmlns="http://www.w3.org/2000/svg" viewBox="0 0 80 80.021"><defs><style>.a,.b{fill:#9caac7;}.b{fill-rule:evenodd;}</style></defs><title>Asset 781</title><path class="a" d="M40,0A40,40,0,1,1,11.716,11.716,39.944,39.944,0,0,1,40,0ZM66.069,13.931A36.875,36.875,0,1,0,76.875,40.022,36.741,36.741,0,0,0,66.069,13.931Z"/><path class="b" d="M60.022,31.5s-.42-2.946-1.64-4.231a5.846,5.846,0,0,0-4.074-1.816c-5.715-.421-14.286-.421-14.286-.421h-.045s-8.548,0-14.264.421a5.822,5.822,0,0,0-4.1,1.816C20.4,28.549,19.978,31.5,19.978,31.5a65.191,65.191,0,0,0-.421,6.865v3.256a64.133,64.133,0,0,0,.421,6.867s.42,2.945,1.639,4.252c1.55,1.7,3.588,1.639,4.519,1.816,3.255.332,13.886.443,13.886.443s8.571-.044,14.286-.443a5.748,5.748,0,0,0,4.074-1.816c1.22-1.307,1.64-4.252,1.64-4.252a67.783,67.783,0,0,0,.4-6.867V38.36c0-3.41-.4-6.865-.4-6.865Zm-13.2,8.062L35.769,45.514V33.554l5.006,2.725Z"/></svg>