<svg xmlns="http://www.w3.org/2000/svg" viewBox="0 0 80 79.999"><defs><style>.a,.b{fill:#9caac7;}.b{fill-rule:evenodd;}</style></defs><title>Asset 751</title><path class="a" d="M40,0A40,40,0,1,1,11.717,11.716,39.81,39.81,0,0,1,40,0ZM66.091,13.931A36.922,36.922,0,1,0,76.877,40,36.854,36.854,0,0,0,66.091,13.931Z"/><path class="b" d="M29.767,40A10.244,10.244,0,1,1,40,50.254,10.256,10.256,0,0,1,29.767,40Zm20.82-20.044H29.436a9.5,9.5,0,0,0-9.48,9.479V50.587a9.519,9.519,0,0,0,9.48,9.479H50.587a9.5,9.5,0,0,0,9.479-9.479V29.435a9.489,9.489,0,0,0-9.479-9.479Zm-21.151,2.37H50.587a7.117,7.117,0,0,1,7.11,7.109V50.587a7.117,7.117,0,0,1-7.11,7.109H29.436a7.117,7.117,0,0,1-7.11-7.109V29.435a7.117,7.117,0,0,1,7.11-7.109Zm23.255,2.989A2.082,2.082,0,1,0,54.773,27.4a2.08,2.08,0,0,0-2.082-2.082ZM52.934,40A12.934,12.934,0,1,0,40,52.934,12.935,12.935,0,0,0,52.934,40Z"/></svg>