<svg xmlns="http://www.w3.org/2000/svg" viewBox="0 0 80 79.999"><defs><style>.a,.b{fill:#9caac7;}.b{fill-rule:evenodd;}</style></defs><title>Asset 791</title><path class="a" d="M40,0A40,40,0,1,1,11.716,11.716,39.849,39.849,0,0,1,40,0ZM66.069,13.931A36.873,36.873,0,1,0,76.875,40,36.765,36.765,0,0,0,66.069,13.931Z"/><path class="b" d="M44.075,37.209c-2.946.044-5.891.044-8.837.044-.841,0-1.7-.044-2.526,0-.176,0-.442.2-.442.31-.022,1.706-.022,3.411-.022,5.183h7.2a3.641,3.641,0,0,1-.243.863c-1.086,3.278-4.475,4.9-8.129,4.3a7.917,7.917,0,0,1-6.489-9.435,8.425,8.425,0,0,1,.531-1.839,7.951,7.951,0,0,1,8.86-4.452,7.311,7.311,0,0,1,3.387,1.75l3.965-3.964A1.98,1.98,0,0,1,41,29.679a12.951,12.951,0,0,0-10.942-2.991A13.592,13.592,0,0,0,19.646,44.872a13.634,13.634,0,0,0,14.241,8.572,12.068,12.068,0,0,0,7.819-3.655c3.121-3.322,3.94-7.309,3.432-11.716-.089-.731-.376-.864-1.063-.864Zm13.4.421h-.885v-.8c0-1.129.022-2.259,0-3.411,0-.176-.221-.509-.311-.509-1.017-.044-2.059-.044-3.143-.044v4.717H48.372v.864c.045.842.068,1.706.133,2.547.82.045,1.639.089,2.5.089.688.022,1.4,0,2.148,0v4.651c1.176-.022,2.26,0,3.434,0V41.085h4.65V37.63Z"/></svg>